<?xml version="1.0" encoding="utf-8"?>
<!-- Generator: Adobe Illustrator 24.2.1, SVG Export Plug-In . SVG Version: 6.00 Build 0)  -->
<svg version="1.1" id="Layer_1" xmlns="http://www.w3.org/2000/svg" xmlns:xlink="http://www.w3.org/1999/xlink" x="0px" y="0px"
	 viewBox="0 0 838.74 204.12" style="enable-background:new 0 0 838.74 204.12;" xml:space="preserve">
<path d="M164.47,101.2c0.77,0,1.46,0.31,2.09,0.94l5.47,5.98c-4.22,4.9-9.35,8.71-15.37,11.45c-6.02,2.74-13.28,4.1-21.78,4.1
	c-7.44,0-14.18-1.28-20.23-3.85c-6.05-2.57-11.21-6.17-15.48-10.8c-4.27-4.63-7.58-10.19-9.94-16.67
	c-2.35-6.48-3.53-13.61-3.53-21.38c0-7.78,1.26-14.9,3.78-21.38c2.52-6.48,6.06-12.05,10.62-16.7c4.56-4.66,10.02-8.27,16.38-10.84
	c6.36-2.57,13.38-3.85,21.06-3.85c7.58,0,14.12,1.18,19.62,3.53c5.5,2.35,10.38,5.54,14.65,9.58l-4.54,6.41
	c-0.34,0.48-0.72,0.88-1.15,1.19c-0.43,0.31-1.06,0.47-1.87,0.47c-0.62,0-1.29-0.23-1.98-0.68c-0.7-0.46-1.52-1.02-2.48-1.69
	c-0.96-0.67-2.09-1.39-3.38-2.16c-1.3-0.77-2.83-1.49-4.61-2.16c-1.78-0.67-3.84-1.24-6.19-1.69c-2.35-0.46-5.06-0.68-8.14-0.68
	c-5.52,0-10.57,0.95-15.16,2.84c-4.58,1.9-8.53,4.6-11.84,8.1c-3.31,3.5-5.89,7.78-7.74,12.82c-1.85,5.04-2.77,10.68-2.77,16.92
	c0,6.43,0.92,12.17,2.77,17.21c1.85,5.04,4.37,9.3,7.56,12.78c3.19,3.48,6.97,6.13,11.34,7.96c4.37,1.82,9.07,2.74,14.11,2.74
	c3.07,0,5.83-0.18,8.28-0.54c2.45-0.36,4.72-0.92,6.8-1.69c2.09-0.77,4.03-1.74,5.83-2.92c1.8-1.18,3.61-2.58,5.44-4.21
	C162.91,101.56,163.7,101.2,164.47,101.2z"/>
<path d="M270.15,70.96c0,7.73-1.22,14.82-3.67,21.28c-2.45,6.46-5.9,12.01-10.37,16.67c-4.46,4.66-9.83,8.27-16.09,10.84
	c-6.26,2.57-13.19,3.85-20.77,3.85c-7.58,0-14.5-1.28-20.74-3.85c-6.24-2.57-11.59-6.18-16.06-10.84
	c-4.46-4.66-7.92-10.21-10.37-16.67c-2.45-6.46-3.67-13.55-3.67-21.28c0-7.73,1.22-14.82,3.67-21.28c2.45-6.46,5.9-12.02,10.37-16.7
	c4.46-4.68,9.82-8.32,16.06-10.91c6.24-2.59,13.15-3.89,20.74-3.89c7.58,0,14.51,1.3,20.77,3.89c6.26,2.59,11.63,6.23,16.09,10.91
	c4.46,4.68,7.92,10.25,10.37,16.7C268.92,56.14,270.15,63.23,270.15,70.96z M255.82,70.96c0-6.34-0.86-12.02-2.59-17.06
	c-1.73-5.04-4.18-9.3-7.34-12.78c-3.17-3.48-7.01-6.16-11.52-8.03c-4.51-1.87-9.55-2.81-15.12-2.81c-5.52,0-10.54,0.94-15.05,2.81
	c-4.51,1.87-8.36,4.55-11.56,8.03c-3.19,3.48-5.65,7.74-7.38,12.78c-1.73,5.04-2.59,10.73-2.59,17.06c0,6.34,0.86,12.01,2.59,17.03
	c1.73,5.02,4.19,9.26,7.38,12.74c3.19,3.48,7.04,6.14,11.56,7.99c4.51,1.85,9.53,2.77,15.05,2.77c5.57,0,10.61-0.92,15.12-2.77
	c4.51-1.85,8.35-4.51,11.52-7.99c3.17-3.48,5.62-7.73,7.34-12.74C254.96,82.97,255.82,77.3,255.82,70.96z"/>
<path d="M276.81,19.8c0.6,0.31,1.28,0.95,2.05,1.91l59.76,77.76c-0.14-1.25-0.24-2.46-0.29-3.64c-0.05-1.18-0.07-2.32-0.07-3.42
	V19.34h12.24v103.18h-7.06c-1.1,0-2.03-0.19-2.77-0.58c-0.75-0.38-1.48-1.03-2.2-1.94L278.79,42.3c0.09,1.2,0.17,2.38,0.22,3.53
	c0.05,1.15,0.07,2.21,0.07,3.17v73.51h-12.24V19.34h7.2C275.29,19.34,276.21,19.49,276.81,19.8z"/>
<path d="M368.68,19.8c0.6,0.31,1.28,0.95,2.05,1.91l59.76,77.76c-0.14-1.25-0.24-2.46-0.29-3.64c-0.05-1.18-0.07-2.32-0.07-3.42
	V19.34h12.24v103.18h-7.06c-1.1,0-2.03-0.19-2.77-0.58c-0.75-0.38-1.48-1.03-2.2-1.94L370.66,42.3c0.09,1.2,0.17,2.38,0.22,3.53
	c0.05,1.15,0.07,2.21,0.07,3.17v73.51h-12.24V19.34h7.2C367.15,19.34,368.08,19.49,368.68,19.8z"/>
<path d="M513.14,19.34v11.38h-49.54v34.27h40.1v10.94h-40.1v35.21h49.54v11.38h-63.58V19.34H513.14z"/>
<path d="M581.95,101.2c0.77,0,1.46,0.31,2.09,0.94l5.47,5.98c-4.22,4.9-9.35,8.71-15.37,11.45c-6.02,2.74-13.28,4.1-21.78,4.1
	c-7.44,0-14.18-1.28-20.23-3.85c-6.05-2.57-11.21-6.17-15.48-10.8c-4.27-4.63-7.58-10.19-9.94-16.67
	c-2.35-6.48-3.53-13.61-3.53-21.38c0-7.78,1.26-14.9,3.78-21.38c2.52-6.48,6.06-12.05,10.62-16.7c4.56-4.66,10.02-8.27,16.38-10.84
	c6.36-2.57,13.38-3.85,21.06-3.85c7.58,0,14.12,1.18,19.62,3.53c5.5,2.35,10.38,5.54,14.65,9.58l-4.54,6.41
	c-0.34,0.48-0.72,0.88-1.15,1.19c-0.43,0.31-1.06,0.47-1.87,0.47c-0.62,0-1.29-0.23-1.98-0.68c-0.7-0.46-1.52-1.02-2.48-1.69
	c-0.96-0.67-2.09-1.39-3.38-2.16c-1.3-0.77-2.83-1.49-4.61-2.16c-1.78-0.67-3.84-1.24-6.19-1.69c-2.35-0.46-5.06-0.68-8.14-0.68
	c-5.52,0-10.57,0.95-15.16,2.84c-4.58,1.9-8.53,4.6-11.84,8.1c-3.31,3.5-5.89,7.78-7.74,12.82c-1.85,5.04-2.77,10.68-2.77,16.92
	c0,6.43,0.92,12.17,2.77,17.21c1.85,5.04,4.37,9.3,7.56,12.78c3.19,3.48,6.97,6.13,11.34,7.96c4.37,1.82,9.07,2.74,14.11,2.74
	c3.07,0,5.83-0.18,8.28-0.54c2.45-0.36,4.72-0.92,6.8-1.69c2.09-0.77,4.03-1.74,5.83-2.92c1.8-1.18,3.61-2.58,5.44-4.21
	C580.39,101.56,581.18,101.2,581.95,101.2z"/>
<path d="M653.66,19.3v11.74h-33.34v91.44h-13.97V31.04h-33.48V19.3H653.66z"/>
<path d="M667.55,79.42v43.06h-13.9V19.3h29.16c6.53,0,12.17,0.66,16.92,1.98c4.75,1.32,8.68,3.23,11.77,5.72
	c3.1,2.5,5.39,5.51,6.88,9.04c1.49,3.53,2.23,7.48,2.23,11.84c0,3.65-0.58,7.06-1.73,10.22c-1.15,3.17-2.82,6.01-5,8.53
	c-2.18,2.52-4.85,4.67-7.99,6.44c-3.14,1.78-6.71,3.12-10.69,4.03c1.73,1.01,3.26,2.47,4.61,4.39l30.1,40.97h-12.38
	c-2.54,0-4.42-0.98-5.62-2.95l-26.78-36.86c-0.82-1.15-1.7-1.98-2.66-2.48c-0.96-0.5-2.4-0.76-4.32-0.76H667.55z M667.55,69.27
	h14.62c4.08,0,7.67-0.49,10.76-1.48c3.1-0.98,5.69-2.38,7.78-4.18c2.09-1.8,3.66-3.95,4.72-6.44c1.05-2.5,1.58-5.26,1.58-8.28
	c0-6.14-2.03-10.78-6.08-13.9c-4.06-3.12-10.09-4.68-18.11-4.68h-15.26V69.27z"/>
<rect x="558.15" y="19.34" width="16.69" height="4.24"/>
</svg>
